<svg width="7" height="14" viewBox="0 0 7 14" fill="none" xmlns="http://www.w3.org/2000/svg">
<path fill-rule="evenodd" clip-rule="evenodd" d="M6.60671 6.74127C6.71262 6.84674 6.77211 6.98971 6.77211 7.13877C6.77211 7.28783 6.71262 7.4308 6.60671 7.53627L0.951113 13.1613C0.843902 13.2606 0.702101 13.3147 0.555583 13.3122C0.409064 13.3096 0.269269 13.2505 0.165648 13.1475C0.0620281 13.0444 0.00267326 12.9054 8.81121e-05 12.7597C-0.00249703 12.6139 0.0518894 12.4729 0.15179 12.3663L5.40772 7.13877L0.15179 1.91127C0.0518894 1.80464 -0.00249703 1.6636 8.81121e-05 1.51788C0.00267326 1.37215 0.0620281 1.23311 0.165648 1.13005C0.269269 1.02699 0.409064 0.96796 0.555583 0.965389C0.702101 0.962818 0.843902 1.01691 0.951113 1.11627L6.60671 6.74127Z" fill="#46495C"/>
</svg>
