<svg width="31" height="31" viewBox="0 0 31 31" fill="none" xmlns="http://www.w3.org/2000/svg">
<path d="M18.4632 29.8754L11.5395 29.8352C5.32373 29.799 0.314284 24.731 0.35015 18.5152L0.390327 11.5915C0.426597 5.37571 5.49452 0.366264 11.7103 0.40213L18.634 0.442307C24.8498 0.478577 29.8593 5.5465 29.8234 11.7623L29.7832 18.686C29.747 24.9018 24.6791 29.9113 18.4632 29.8754Z" fill="white" fill-opacity="0.5"/>
<path d="M18.4632 29.8754L11.5395 29.8352C5.32373 29.799 0.314284 24.731 0.35015 18.5152L0.390327 11.5915C0.426597 5.37571 5.49452 0.366264 11.7103 0.40213L18.634 0.442307C24.8498 0.478577 29.8593 5.5465 29.8234 11.7623L29.7832 18.686C29.747 24.9018 24.6791 29.9113 18.4632 29.8754Z" stroke="#70E242" stroke-width="0.566038"/>
<path d="M15.3476 19.755L10.1554 19.7249L10.1855 14.5327" stroke="#70E242" stroke-width="1.73077" stroke-linecap="round" stroke-linejoin="round"/>
<path d="M19.7296 10.2611L10.1553 19.7249" stroke="#70E242" stroke-width="1.73077" stroke-linecap="round" stroke-linejoin="round"/>
</svg>
