<svg width="20" height="21" viewBox="0 0 20 21" fill="none" xmlns="http://www.w3.org/2000/svg">
<path d="M13.9081 0.866702C12.7091 0.324861 11.4132 0.0308608 10.0981 0.00230166C8.78288 -0.0262575 7.47548 0.211211 6.25414 0.700493C4.58208 1.3557 3.11664 2.44881 2.01114 3.86545L1.59514 2.36358C1.57997 2.25076 1.54096 2.14247 1.48071 2.04594C1.42047 1.94941 1.34037 1.86684 1.24574 1.80374C1.15112 1.74064 1.04415 1.69846 0.931962 1.68001C0.819776 1.66156 0.704951 1.66727 0.595139 1.69674C0.396053 1.76851 0.228582 1.90821 0.122147 2.09132C0.0157122 2.27442 -0.0228816 2.48922 0.0131384 2.69799L0.845139 6.11326C0.879796 6.30637 0.983201 6.48036 1.13619 6.60297C1.28917 6.72559 1.48136 6.78851 1.67714 6.78009H1.84314L5.25414 5.94705C5.36004 5.92311 5.45988 5.87757 5.54742 5.81328C5.63497 5.74898 5.70834 5.66731 5.76296 5.57335C5.81757 5.4794 5.85225 5.37519 5.86484 5.26721C5.87743 5.15924 5.86766 5.04982 5.83614 4.9458C5.83499 4.83796 5.80698 4.73212 5.75464 4.63787C5.7023 4.54362 5.6273 4.46395 5.53642 4.40607C5.44554 4.34819 5.34167 4.31395 5.23422 4.30644C5.12678 4.29893 5.01917 4.31839 4.92114 4.36307L3.50714 4.69649C4.38733 3.61553 5.53415 2.78342 6.83414 2.28247C7.85791 1.87614 8.95321 1.68139 10.0541 1.70996C11.155 1.73852 12.2388 1.9898 13.2401 2.44868C15.2473 3.34611 16.828 4.98877 17.6491 7.0304C18.4373 9.09722 18.3817 11.3915 17.4945 13.4177C16.6072 15.4438 14.9594 17.0391 12.9071 17.8589C11.4909 18.4104 9.95059 18.5619 8.45421 18.2971C6.95783 18.0323 5.56278 17.3612 4.42114 16.3571C3.41122 15.4631 2.6152 14.353 2.09213 13.109C2.05392 13.0051 1.99564 12.9097 1.92061 12.8283C1.84558 12.7469 1.75526 12.6811 1.65483 12.6347C1.5544 12.5882 1.44583 12.562 1.3353 12.5576C1.22477 12.5532 1.11445 12.5706 1.01064 12.6089C0.906826 12.6471 0.811555 12.7055 0.730271 12.7806C0.648987 12.8558 0.583279 12.9462 0.536896 13.0467C0.490513 13.1473 0.464367 13.256 0.459946 13.3667C0.455526 13.4773 0.472925 13.5878 0.51114 13.6917C1.23467 15.5733 2.51552 17.1884 4.18192 18.3203C5.84831 19.4523 7.82056 20.047 9.83414 20.0247C11.0562 20.0128 12.2667 19.7871 13.4111 19.3578C15.8603 18.4011 17.8336 16.5153 18.9021 14.1103C19.9476 11.6855 20.0114 8.94898 19.08 6.47808C18.1486 4.00717 16.2949 1.99519 13.9101 0.866702H13.9081Z" fill="#0D1752"/>
<path d="M9.91546 5.03129C9.80446 5.02457 9.69328 5.04152 9.58929 5.08101C9.48531 5.1205 9.39089 5.18162 9.31225 5.26036C9.23362 5.33909 9.17255 5.43364 9.13312 5.53776C9.09368 5.64187 9.07675 5.75319 9.08346 5.86434V10.8616C9.07687 10.992 9.10407 11.122 9.16241 11.2388C9.22076 11.3557 9.30828 11.4554 9.41647 11.5284L12.7445 14.0315C12.8965 14.1239 13.0674 14.1807 13.2445 14.1978C13.3748 14.2043 13.5046 14.1771 13.6212 14.1187C13.7379 14.0603 13.8376 13.9727 13.9105 13.8643C14.0272 13.6823 14.0747 13.4643 14.0442 13.2502C14.0138 13.036 13.9074 12.84 13.7445 12.6979L10.7494 10.4491V5.86735C10.7566 5.75578 10.74 5.64394 10.7007 5.53931C10.6613 5.43469 10.6001 5.33966 10.5212 5.26055C10.4423 5.18145 10.3475 5.1201 10.243 5.08057C10.1386 5.04103 10.0269 5.02424 9.91546 5.03129Z" fill="#0D1752"/>
</svg>
