<svg width="24" height="24" viewBox="0 0 24 24" fill="none" xmlns="http://www.w3.org/2000/svg">
<path d="M8.66667 18.0519C8.48986 18.0519 8.32029 18.1572 8.19526 18.3448C8.07024 18.5323 8 18.7867 8 19.0519C8 19.3171 8.07024 19.5715 8.19526 19.759C8.32029 19.9465 8.48986 20.0519 8.66667 20.0519H15.3333C15.5101 20.0519 15.6797 19.9465 15.8047 19.759C15.9298 19.5715 16 19.3171 16 19.0519C16 18.7867 15.9298 18.5323 15.8047 18.3448C15.6797 18.1572 15.5101 18.0519 15.3333 18.0519H8.66667Z" fill="#0D1752"/>
<path d="M12 0.900391C12.8883 0.900391 13.7511 1.1995 14.4482 1.75L21.5977 7.39551C22.0658 7.76521 22.4449 8.23561 22.7051 8.77246C22.9652 9.30934 23.0996 9.89854 23.0996 10.4951V19.3457C23.0996 20.3932 22.6839 21.3979 21.9434 22.1387C21.2027 22.8793 20.1979 23.2958 19.1504 23.2959H4.84961C3.80215 23.2958 2.79732 22.8793 2.05664 22.1387C1.31606 21.3979 0.900391 20.3932 0.900391 19.3457V10.4951C0.900403 9.89854 1.03479 9.30934 1.29492 8.77246C1.55507 8.23561 1.93415 7.76521 2.40234 7.39551L9.55176 1.75C10.2489 1.1995 11.1117 0.900391 12 0.900391ZM12 2.2002C11.4042 2.2002 10.826 2.40141 10.3584 2.77051L3.20703 8.41602C2.89314 8.66411 2.63921 8.97974 2.46484 9.33984C2.29047 9.69998 2.20014 10.095 2.2002 10.4951V19.3457C2.2002 20.0485 2.47959 20.7228 2.97656 21.2197C3.47342 21.7165 4.14701 21.996 4.84961 21.9961H19.1504C19.853 21.996 20.5266 21.7165 21.0234 21.2197C21.5204 20.7228 21.7998 20.0485 21.7998 19.3457V10.4951C21.7997 10.0949 21.7087 9.69998 21.5342 9.33984C21.3596 8.97979 21.106 8.66397 20.792 8.41602L13.6416 2.77051C13.174 2.40141 12.5958 2.2002 12 2.2002Z" fill="#0D1752" stroke="#0D1752" stroke-width="0.2"/>
</svg>
