<svg width="20" height="24" viewBox="0 0 20 24" fill="none" xmlns="http://www.w3.org/2000/svg">
<path d="M14.6074 11.6494C15.1888 11.6494 15.7335 11.7478 16.2256 11.9424C16.7183 12.1377 17.1458 12.406 17.4951 12.7402C17.8281 13.0587 18.1243 13.4457 18.376 13.8887C18.6183 14.3147 18.8137 14.7595 18.958 15.21C19.0974 15.6451 19.2144 16.1212 19.3047 16.624C19.394 17.1224 19.4543 17.5949 19.4844 18.0283C19.5141 18.4513 19.5291 18.8934 19.5293 19.3408C19.5292 20.5086 19.1573 21.4585 18.4209 22.1592C17.6941 22.8506 16.7343 23.2002 15.5723 23.2002H4.90723C3.74473 23.2002 2.78428 22.8508 2.05762 22.1592C1.32155 21.458 0.95025 20.5082 0.950195 19.3408C0.950195 18.895 0.964647 18.4534 0.994141 18.0293C1.02421 17.5947 1.08531 17.1219 1.1748 16.624C1.26504 16.1212 1.38133 15.6451 1.52051 15.21C1.66486 14.7592 1.86063 14.3146 2.10254 13.8887C2.35409 13.4457 2.65041 13.0589 2.9834 12.7402C3.33308 12.4057 3.7605 12.1373 4.25293 11.9424C4.74487 11.7475 5.28951 11.6494 5.87109 11.6494C6.11311 11.6495 6.34248 11.7503 6.76465 12.0254C7.0283 12.1972 7.3329 12.3927 7.66895 12.6074C7.95371 12.7891 8.34268 12.9613 8.8252 13.1172C9.29436 13.2689 9.77038 13.3457 10.2393 13.3457C10.7086 13.3457 11.1845 13.2689 11.6533 13.1172C12.1365 12.9611 12.5253 12.7892 12.8105 12.6074C13.1123 12.4149 13.413 12.2207 13.7129 12.0254C14.1355 11.7502 14.3653 11.6494 14.6074 11.6494ZM14.4766 13.1963C14.2097 13.3704 13.9104 13.5628 13.5625 13.7852C13.1741 14.0328 12.6761 14.2556 12.083 14.4473C11.4755 14.6436 10.8552 14.7432 10.2393 14.7432C9.62347 14.7432 9.0032 14.6437 8.39551 14.4473C7.80304 14.256 7.30485 14.0334 6.91699 13.7861C6.57691 13.569 6.2689 13.3703 6.00195 13.1963C5.88196 13.1181 5.8045 13.0737 5.75879 13.0488C5.39637 13.06 5.0633 13.1251 4.76758 13.2422C4.44223 13.3709 4.16741 13.542 3.9502 13.75C3.71625 13.974 3.50373 14.2531 3.31836 14.5791C3.12367 14.9219 2.96656 15.2777 2.85156 15.6367C2.73135 16.0123 2.63034 16.4281 2.55078 16.8711C2.4701 17.32 2.41517 17.7422 2.38867 18.126C2.36134 18.5181 2.34766 18.9269 2.34766 19.3408C2.3477 20.1284 2.57012 20.7166 3.02148 21.1465C3.48282 21.5855 4.09759 21.8018 4.90723 21.8018H15.5723C16.3815 21.8017 16.9956 21.5855 17.457 21.1465C17.9086 20.7168 18.1316 20.1288 18.1318 19.3408C18.1317 18.9257 18.1173 18.5166 18.0898 18.126L18.0645 17.8311C18.0341 17.5296 17.9891 17.2074 17.9287 16.8701C17.8493 16.4276 17.7473 16.0127 17.627 15.6367C17.5122 15.278 17.3551 14.9218 17.1602 14.5791C16.9748 14.2528 16.7623 13.9738 16.5283 13.75C16.3111 13.5422 16.0362 13.371 15.7109 13.2422C15.4148 13.125 15.0817 13.0598 14.7188 13.0488C14.673 13.0736 14.5961 13.1185 14.4766 13.1963ZM10.0996 0.950195C11.5785 0.950195 12.8606 1.48105 13.9072 2.52734C14.9538 3.57416 15.4844 4.85619 15.4844 6.33496C15.4843 7.81401 14.9534 9.09526 13.9072 10.1416C12.8606 11.1882 11.5786 11.7197 10.0996 11.7197C8.62121 11.7197 7.33959 11.1886 6.29297 10.1426C5.24654 9.09617 4.71491 7.81406 4.71484 6.33496C4.71484 4.85604 5.24656 3.57381 6.29297 2.52734C7.33926 1.4811 8.62062 0.950274 10.0996 0.950195ZM10.0996 2.34766C8.98832 2.34773 8.0675 2.72939 7.28125 3.51562C6.49467 4.30218 6.11328 5.22375 6.11328 6.33496C6.11335 7.4463 6.49481 8.36703 7.28125 9.15332C8.06794 9.93968 8.98856 10.3212 10.0996 10.3213C11.2109 10.3213 12.1324 9.93991 12.9189 9.15332C13.7051 8.36689 14.0868 7.44623 14.0869 6.33496C14.0869 5.22379 13.7054 4.30218 12.9189 3.51562C12.1324 2.72925 11.2109 2.34766 10.0996 2.34766Z" fill="#0D1752" stroke="#0D1752" stroke-width="0.1"/>
</svg>
