<svg width="41" height="42" viewBox="0 0 41 42" fill="none" xmlns="http://www.w3.org/2000/svg">
<path d="M36.7372 10.3758V27.8261C36.7372 29.4337 35.43 30.7239 33.8487 30.7239H6.31322C4.71085 30.7239 3.42474 29.4125 3.42474 27.8261V10.3758C3.42474 8.76828 4.73194 7.47802 6.31322 7.47802H33.8487C35.4511 7.45687 36.7372 8.76828 36.7372 10.3758Z" fill="#0D1752"/>
<path d="M36.7372 13.993V27.8052C36.7372 29.4128 35.43 30.703 33.8487 30.703H6.31322C4.71085 30.703 3.42474 29.3916 3.42474 27.8052V13.993H36.7372Z" fill="#296BFF"/>
<path d="M11.9219 24.9086C11.9219 25.2047 11.6689 25.4585 11.3737 25.4585H7.03044C6.73527 25.4585 6.48226 25.2047 6.48226 24.9086C6.48226 24.6125 6.73527 24.3586 7.03044 24.3586H11.3737C11.69 24.3586 11.9219 24.6125 11.9219 24.9086ZM18.6266 24.3586H14.2833C13.9881 24.3586 13.7351 24.6125 13.7351 24.9086C13.7351 25.2047 13.9881 25.4585 14.2833 25.4585H18.6266C18.9217 25.4585 19.1747 25.2047 19.1747 24.9086C19.1747 24.6125 18.9428 24.3586 18.6266 24.3586ZM25.8794 24.3586H21.5361C21.241 24.3586 20.988 24.6125 20.988 24.9086C20.988 25.2047 21.241 25.4585 21.5361 25.4585H25.8794C26.1746 25.4585 26.4276 25.2047 26.4276 24.9086C26.4276 24.6125 26.1746 24.3586 25.8794 24.3586ZM33.1323 24.3586H28.789C28.4938 24.3586 28.2408 24.6125 28.2408 24.9086C28.2408 25.2047 28.4938 25.4585 28.789 25.4585H33.1323C33.4274 25.4585 33.6804 25.2047 33.6804 24.9086C33.6804 24.6125 33.4274 24.3586 33.1323 24.3586Z" fill="#F3F4F5"/>
<path d="M29.3998 13.9941C29.3998 14.2902 29.1468 14.544 28.8517 14.544H28.7884C28.4932 14.544 28.2402 14.2902 28.2402 13.9941C28.2402 13.6979 28.4932 13.4441 28.7884 13.4441H28.8517C29.1468 13.4653 29.3998 13.6979 29.3998 13.9941ZM30.5805 12.2808C30.3275 12.1327 29.9902 12.2173 29.8426 12.4711C29.695 12.725 29.7793 13.0634 30.0323 13.2114C30.3064 13.3807 30.4962 13.6768 30.4962 13.9941C30.4962 14.3113 30.3275 14.6075 30.0323 14.7767C29.7793 14.9247 29.6739 15.2632 29.8426 15.517C29.948 15.6862 30.1167 15.792 30.3064 15.792C30.3908 15.792 30.4962 15.7708 30.5805 15.7285C31.192 15.3689 31.5715 14.7132 31.5715 13.9941C31.5715 13.2961 31.192 12.6403 30.5805 12.2808ZM32.0142 11.0117C31.7612 10.8636 31.4239 10.9482 31.2763 11.202C31.1287 11.4558 31.213 11.7943 31.4661 11.9423C32.1829 12.3654 32.6467 13.148 32.6467 13.9941C32.6467 14.8401 32.204 15.6228 31.4661 16.0458C31.213 16.1939 31.1076 16.5323 31.2763 16.7861C31.3817 16.9553 31.5504 17.0611 31.7401 17.0611C31.8245 17.0611 31.9299 17.0399 32.0142 16.9976C33.0684 16.3842 33.7431 15.242 33.7431 14.0152C33.7431 12.7884 33.0895 11.6251 32.0142 11.0117Z" fill="#F3F4F5"/>
</svg>
