<svg width="31" height="32" viewBox="0 0 31 32" fill="none" xmlns="http://www.w3.org/2000/svg">
<path d="M26.7107 27.6344H4.98974C3.83349 27.6344 2.88372 26.7022 2.88372 25.5215V7.3762C2.88372 6.21622 3.81285 5.26338 4.98974 5.26338H26.7107C27.8669 5.26338 28.8167 6.19551 28.8167 7.3762V25.5215C28.8167 26.7022 27.8876 27.6344 26.7107 27.6344Z" fill="url(#paint0_linear_12_34)"/>
<path d="M26.2358 27.1378H5.48528C4.37033 27.1378 3.4825 26.2471 3.4825 25.1286V7.79106C3.4825 6.67251 4.37033 5.78181 5.48528 5.78181H26.2358C27.3507 5.78181 28.2386 6.67251 28.2386 7.79106V25.1286C28.2386 26.2264 27.3507 27.1378 26.2358 27.1378Z" fill="url(#paint1_linear_12_34)"/>
<path d="M27.413 11.1468L22.1892 2.07408C21.8382 1.47338 21.0743 1.26624 20.4755 1.61837L3.99898 11.1468H27.413Z" fill="url(#paint2_linear_12_34)"/>
<path d="M2.90438 18.461H28.8167V11.584C28.8167 10.714 28.1147 10.0098 27.2475 10.0098H4.47357C3.60639 10.0098 2.90438 10.714 2.90438 11.584V18.461Z" fill="url(#paint3_linear_12_34)"/>
<path d="M2.90438 15.8718V25.5245C2.90438 26.6844 3.83351 27.6373 5.0104 27.6373H26.7313C27.8876 27.6373 28.8373 26.7052 28.8373 25.5245V15.8718C28.8373 15.1468 28.2592 14.5668 27.5366 14.5668H4.20516C3.4825 14.5668 2.90438 15.1468 2.90438 15.8718Z" fill="url(#paint4_linear_12_34)"/>
<path d="M23.1387 29.9957L4.94846 27.8829C3.79221 27.7379 2.90438 26.7643 2.90438 25.5836V7.23116C2.90438 7.62472 3.19344 7.95614 3.58574 7.99757L23.6755 10.3382C24.8318 10.4832 25.7196 11.4568 25.7196 12.6375V27.6757C25.7196 29.0843 24.5221 30.1614 23.1387 29.9957Z" fill="url(#paint5_linear_12_34)"/>
<path d="M21.6314 28.6091C21.6108 28.6091 21.5901 28.6091 21.5695 28.6091L19.959 28.4019C19.7319 28.3812 19.5667 28.1534 19.5873 27.9255C19.608 27.6977 19.8351 27.532 20.0622 27.5527L21.6727 27.7598C21.8998 27.7805 22.065 28.0084 22.0444 28.2362C22.0237 28.4434 21.8379 28.6091 21.6314 28.6091ZM23.2213 28.4019C23.0561 28.4019 22.9116 28.3191 22.8496 28.1534C22.7464 27.9462 22.8496 27.6977 23.0561 27.5941C23.4897 27.387 23.7994 27.0555 23.9233 26.6827C24.0059 26.4548 24.233 26.3513 24.4601 26.4341C24.6872 26.517 24.7905 26.7448 24.7079 26.9727C24.5014 27.5734 24.0265 28.0705 23.4071 28.3605C23.3451 28.3812 23.2832 28.4019 23.2213 28.4019ZM18.4104 28.1948C18.3898 28.1948 18.3692 28.1948 18.3485 28.1948L16.738 27.9877C16.5109 27.9669 16.3457 27.7391 16.3664 27.5112C16.387 27.2834 16.6141 27.1177 16.8413 27.1384L18.4517 27.3455C18.6789 27.3662 18.844 27.5941 18.8234 27.822C18.7821 28.0498 18.6169 28.1948 18.4104 28.1948ZM15.1688 27.7805C15.1482 27.7805 15.1275 27.7805 15.1069 27.7805L13.4964 27.5734C13.2693 27.5527 13.1041 27.3248 13.1247 27.097C13.1454 26.8691 13.3725 26.7034 13.5996 26.7241L15.2101 26.9313C15.4372 26.952 15.6024 27.1798 15.5818 27.4077C15.5611 27.6355 15.3753 27.7805 15.1688 27.7805ZM11.9272 27.3662C11.9066 27.3662 11.8859 27.3662 11.8653 27.3662L10.2548 27.1591C10.0277 27.1384 9.86248 26.9105 9.88313 26.6827C9.90377 26.4548 10.1309 26.2891 10.358 26.3098L11.9685 26.517C12.1956 26.5377 12.3608 26.7655 12.3401 26.9934C12.3195 27.2212 12.1337 27.3662 11.9272 27.3662ZM8.68558 26.952C8.66494 26.952 8.64429 26.952 8.62364 26.952L7.01315 26.7448C6.78603 26.7241 6.62086 26.4963 6.6415 26.2684C6.66215 26.0406 6.88927 25.8748 7.11639 25.8956L8.72688 26.1027C8.954 26.1234 9.11918 26.3513 9.09853 26.5791C9.07788 26.807 8.9127 26.952 8.68558 26.952ZM24.4188 25.6263C24.1917 25.6263 24.0059 25.4399 24.0059 25.212V23.5756C24.0059 23.3478 24.1917 23.1613 24.4188 23.1613C24.6459 23.1613 24.8317 23.3478 24.8317 23.5756V25.212C24.8317 25.4399 24.6459 25.6263 24.4188 25.6263ZM24.4188 22.3535C24.1917 22.3535 24.0059 22.1671 24.0059 21.9392V20.2821C24.0059 20.0542 24.1917 19.8678 24.4188 19.8678C24.6459 19.8678 24.8317 20.0542 24.8317 20.2821V21.9185C24.8317 22.1671 24.6459 22.3535 24.4188 22.3535ZM24.4188 19.0807C24.1917 19.0807 24.0059 18.8943 24.0059 18.6664V17.03C24.0059 16.8022 24.1917 16.6157 24.4188 16.6157C24.6459 16.6157 24.8317 16.8022 24.8317 17.03V18.6664C24.8317 18.8943 24.6459 19.0807 24.4188 19.0807ZM24.4188 15.8079C24.1917 15.8079 24.0059 15.6215 24.0059 15.3936V13.7572C24.0059 13.5294 24.1917 13.343 24.4188 13.343C24.6459 13.343 24.8317 13.5294 24.8317 13.7572V15.3936C24.8317 15.6215 24.6459 15.8079 24.4188 15.8079ZM23.8407 12.7008C23.7374 12.7008 23.6342 12.6594 23.5516 12.5765C23.2419 12.2865 22.8083 12.1001 22.3334 12.038H22.3128C22.0857 12.0173 21.9205 11.8101 21.9411 11.5823C21.9618 11.3544 22.1682 11.1887 22.3954 11.2094C23.0561 11.2716 23.6549 11.5408 24.0884 11.9551C24.2536 12.1208 24.2536 12.3901 24.1091 12.5558C24.0472 12.6594 23.9439 12.7008 23.8407 12.7008ZM20.7436 11.8723C20.7229 11.8723 20.7229 11.8723 20.7023 11.8723L19.0712 11.6858C18.844 11.6651 18.6789 11.458 18.6995 11.2301C18.7202 11.0023 18.9266 10.8366 19.1537 10.8573L20.7849 11.0437C21.012 11.0644 21.1772 11.2716 21.1565 11.4994C21.1359 11.7066 20.9501 11.8723 20.7436 11.8723ZM17.502 11.5201C17.4813 11.5201 17.4813 11.5201 17.4607 11.5201L15.8295 11.3337C15.6024 11.313 15.4372 11.1059 15.4579 10.878C15.4785 10.6502 15.685 10.4844 15.9121 10.5052L17.5433 10.6916C17.7704 10.7123 17.9356 10.9194 17.9149 11.1473C17.8943 11.3544 17.7084 11.5201 17.502 11.5201ZM14.2603 11.168C14.2397 11.168 14.2397 11.168 14.2191 11.168L12.5879 10.9816C12.3608 10.9609 12.1956 10.7537 12.2163 10.5259C12.2369 10.298 12.4434 10.1323 12.6705 10.153L14.3016 10.3394C14.5288 10.3602 14.6939 10.5673 14.6733 10.7951C14.6526 11.0023 14.4668 11.168 14.2603 11.168ZM11.0187 10.7951C10.9981 10.7951 10.9981 10.7951 10.9774 10.7951L9.3463 10.6294C9.11918 10.588 8.954 10.3809 8.97464 10.153C8.99529 9.92517 9.20177 9.75945 9.44953 9.78017L11.0807 9.96659C11.3078 9.98731 11.473 10.1944 11.4523 10.4223C11.411 10.6502 11.2252 10.7951 11.0187 10.7951ZM7.7771 10.443C7.75646 10.443 7.75646 10.443 7.73581 10.443L6.10467 10.2566C5.87755 10.2359 5.71238 10.0287 5.73302 9.80088C5.75367 9.57303 5.96014 9.40732 6.18726 9.42803L7.8184 9.61446C8.04552 9.63517 8.2107 9.84231 8.19005 10.0702C8.1694 10.2773 7.98358 10.443 7.7771 10.443Z" fill="#70E242"/>
<path d="M20.9498 22.5189C22.0788 22.5189 22.9939 21.6008 22.9939 20.4683C22.9939 19.3357 22.0788 18.4176 20.9498 18.4176C19.8209 18.4176 18.9058 19.3357 18.9058 20.4683C18.9058 21.6008 19.8209 22.5189 20.9498 22.5189Z" fill="url(#paint6_linear_12_34)"/>
<path d="M20.4133 20.2209C20.573 20.2209 20.7024 20.0911 20.7024 19.9309C20.7024 19.7707 20.573 19.6409 20.4133 19.6409C20.2537 19.6409 20.1243 19.7707 20.1243 19.9309C20.1243 20.0911 20.2537 20.2209 20.4133 20.2209Z" fill="#70E242"/>
<path d="M21.487 20.2209C21.6466 20.2209 21.776 20.0911 21.776 19.9309C21.776 19.7707 21.6466 19.6409 21.487 19.6409C21.3273 19.6409 21.1979 19.7707 21.1979 19.9309C21.1979 20.0911 21.3273 20.2209 21.487 20.2209Z" fill="#70E242"/>
<path d="M20.4133 21.2959C20.573 21.2959 20.7024 21.1661 20.7024 21.0059C20.7024 20.8457 20.573 20.7159 20.4133 20.7159C20.2537 20.7159 20.1243 20.8457 20.1243 21.0059C20.1243 21.1661 20.2537 21.2959 20.4133 21.2959Z" fill="#70E242"/>
<path d="M21.487 21.2959C21.6466 21.2959 21.776 21.1661 21.776 21.0059C21.776 20.8457 21.6466 20.7159 21.487 20.7159C21.3273 20.7159 21.1979 20.8457 21.1979 21.0059C21.1979 21.1661 21.3273 21.2959 21.487 21.2959Z" fill="#70E242"/>
<defs>
<linearGradient id="paint0_linear_12_34" x1="16.2828" y1="3.9937" x2="16.1305" y2="8.44414" gradientUnits="userSpaceOnUse">
<stop stop-color="#296BFF"/>
<stop offset="1" stop-color="#1F4AC4"/>
</linearGradient>
<linearGradient id="paint1_linear_12_34" x1="3.48002" y1="16.4584" x2="28.2382" y2="16.4584" gradientUnits="userSpaceOnUse">
<stop stop-color="#1F4AC4"/>
<stop offset="1" stop-color="#296BFF"/>
</linearGradient>
<linearGradient id="paint2_linear_12_34" x1="15.7021" y1="7.05011" x2="15.7021" y2="9.64736" gradientUnits="userSpaceOnUse">
<stop stop-color="#70E242"/>
<stop offset="1" stop-color="#ABFC87"/>
</linearGradient>
<linearGradient id="paint3_linear_12_34" x1="15.8592" y1="11.5484" x2="15.8592" y2="18.8369" gradientUnits="userSpaceOnUse">
<stop stop-color="#0D1752"/>
<stop offset="1" stop-color="#050D30"/>
</linearGradient>
<linearGradient id="paint4_linear_12_34" x1="15.8592" y1="16.9604" x2="15.8592" y2="28.2168" gradientUnits="userSpaceOnUse">
<stop stop-color="#0D1752"/>
<stop offset="1" stop-color="#050D30"/>
</linearGradient>
<linearGradient id="paint5_linear_12_34" x1="10.4345" y1="17.3122" x2="20.0624" y2="21.7391" gradientUnits="userSpaceOnUse">
<stop stop-color="#296BFF"/>
<stop offset="1" stop-color="#1F4AC4"/>
</linearGradient>
<linearGradient id="paint6_linear_12_34" x1="20.9422" y1="19.172" x2="20.9422" y2="22.1502" gradientUnits="userSpaceOnUse">
<stop stop-color="#0D1752"/>
<stop offset="1" stop-color="#050D30"/>
</linearGradient>
</defs>
</svg>
