<svg width="23" height="24" viewBox="0 0 23 24" fill="none" xmlns="http://www.w3.org/2000/svg">
<path d="M1.74535 8.57909C0.780397 8.57909 0 7.79869 0 6.83374V2.97131C0 1.33142 1.34988 0 3.00822 0H9.89733C10.8623 0 11.6427 0.780397 11.6427 1.74535C11.6427 2.7103 10.8623 3.49069 9.89733 3.49069H3.49069V6.83374C3.49069 7.79869 2.7103 8.57909 1.74535 8.57909Z" fill="#27FB6B"/>
<path d="M18.8456 8.94825H18.8246C17.8596 8.9377 17.0871 8.14676 17.1003 7.18181C17.1135 6.09558 16.6943 4.9909 16.0088 4.2975C15.5421 3.82558 14.9885 3.58566 14.3636 3.58566C13.3987 3.58566 12.6183 2.80526 12.6183 1.84031C12.6183 0.87536 13.3987 0.0949633 14.3636 0.0949633C15.935 0.0949633 17.3639 0.698716 18.4924 1.84295C19.829 3.19546 20.6147 5.20709 20.591 7.22399C20.5804 8.18103 19.8 8.95088 18.8456 8.95088V8.94825Z" fill="#27FB6B"/>
<path d="M13.6385 24C13.3986 24 13.1217 24 12.8291 23.9974H2.97394C1.33406 23.9974 0 22.6791 0 21.0603V19.2702C0 18.3052 0.780397 17.5248 1.74535 17.5248C2.7103 17.5248 3.49069 18.3052 3.49069 19.2702V20.5067H12.8449C13.678 20.5146 14.3767 20.5067 14.3767 20.5067C15.3337 20.5093 16.13 21.2686 16.1405 22.2336C16.151 23.1985 15.3786 23.9868 14.4136 23.9974C14.4136 23.9974 14.0972 24 13.6385 24Z" fill="#27FB6B"/>
<path d="M18.9088 22.9241C18.3657 22.9241 17.8278 22.671 17.4877 22.1938C16.9262 21.4108 17.1081 20.3193 17.8911 19.7577C18.6689 19.2014 19.0644 17.4429 18.69 16.209C18.284 14.8723 17.2267 13.2746 14.4373 13.2878L3.49069 13.2773V14.6034C3.49069 15.5684 2.7103 16.3488 1.74535 16.3488C0.780397 16.3488 0 15.5684 0 14.6034V12.7816C0 11.9722 0.32165 11.2129 0.906948 10.6461C1.47643 10.0924 2.23046 9.78921 3.03195 9.78921H3.03458L14.4347 9.79976C14.4347 9.79976 14.4584 9.79976 14.4716 9.79976C18.1785 9.79976 21.0074 11.8167 22.0357 15.1966C22.7581 17.5774 22.1675 20.9969 19.9291 22.5998C19.6207 22.8213 19.2647 22.9268 18.9141 22.9268L18.9088 22.9241Z" fill="#27FB6B"/>
</svg>
