<svg width="23" height="24" viewBox="0 0 23 24" fill="none" xmlns="http://www.w3.org/2000/svg">
<path d="M1.74534 8.57907C0.780395 8.57907 0 7.79868 0 6.83373V2.9713C0 1.33142 1.34987 0 3.00821 0H9.89731C10.8623 0 11.6427 0.780395 11.6427 1.74534C11.6427 2.71029 10.8623 3.49069 9.89731 3.49069H3.49069V6.83373C3.49069 7.79868 2.71029 8.57907 1.74534 8.57907Z" fill="#27FB6B"/>
<path d="M18.8456 8.94823H18.8245C17.8596 8.93768 17.0871 8.14674 17.1003 7.18179C17.1134 6.09557 16.6942 4.99089 16.0088 4.2975C15.5421 3.82557 14.9884 3.58565 14.3636 3.58565C13.3987 3.58565 12.6183 2.80525 12.6183 1.84031C12.6183 0.875358 13.3987 0.0949631 14.3636 0.0949631C15.9349 0.0949631 17.3639 0.698715 18.4923 1.84294C19.829 3.19545 20.6147 5.20708 20.5909 7.22398C20.5804 8.18102 19.8 8.95087 18.8456 8.95087V8.94823Z" fill="#27FB6B"/>
<path d="M13.6385 24C13.3985 24 13.1217 24 12.8291 23.9973H2.97394C1.33405 23.9973 0 22.6791 0 21.0603V19.2701C0 18.3052 0.780395 17.5248 1.74534 17.5248C2.71029 17.5248 3.49069 18.3052 3.49069 19.2701V20.5066H12.8449C13.678 20.5145 14.3767 20.5066 14.3767 20.5066C15.3337 20.5093 16.1299 21.2686 16.1405 22.2335C16.151 23.1985 15.3785 23.9868 14.4136 23.9973C14.4136 23.9973 14.0972 24 13.6385 24Z" fill="#27FB6B"/>
<path d="M18.9088 22.9241C18.3657 22.9241 17.8278 22.671 17.4877 22.1938C16.9261 21.4108 17.1081 20.3193 17.8911 19.7577C18.6688 19.2014 19.0643 17.4429 18.6899 16.209C18.2839 14.8723 17.2267 13.2746 14.4373 13.2878L3.49069 13.2772V14.6034C3.49069 15.5683 2.71029 16.3487 1.74534 16.3487C0.780395 16.3487 0 15.5683 0 14.6034V12.7816C0 11.9722 0.321649 11.2129 0.906946 10.646C1.47642 10.0924 2.23045 9.7892 3.03194 9.7892H3.03458L14.4347 9.79974C14.4347 9.79974 14.4584 9.79974 14.4716 9.79974C18.1785 9.79974 21.0074 11.8166 22.0356 15.1966C22.758 17.5773 22.1674 20.9968 19.9291 22.5998C19.6206 22.8213 19.2647 22.9267 18.914 22.9267L18.9088 22.9241Z" fill="#27FB6B"/>
</svg>
