<svg width="39" height="37" viewBox="0 0 39 37" fill="none" xmlns="http://www.w3.org/2000/svg">
<path d="M36 28.3744L25.5583 21.799V24.6557H19.5001L18.8105 28.1035L19.5001 32.093H25.5583V34.9497L36 28.3744Z" fill="#0D1752"/>
<path d="M17.2588 24.6564L11.0282 18.5982V25.6415C11.0282 29.2124 13.9342 32.1184 17.5051 32.1184H19.4999V24.6564H17.2588Z" fill="#050D30"/>
<path d="M21.4696 4.85596H19.4748L18.0957 8.15595L19.4748 12.2933H21.7158L27.9464 18.3515V11.3328C27.9711 7.76192 25.0651 4.85596 21.4696 4.85596Z" fill="#1F4AC4"/>
<path d="M13.4418 4.85671V2L3 8.57536L13.4418 15.1507V12.294H19.5V4.85671H13.4418Z" fill="#296BFF"/>
<path d="M19.4991 10.0042L18.8096 18.6728L19.4991 26.9228C24.1782 26.9228 27.9707 23.1302 27.9707 18.4511C27.9707 13.7721 24.1782 10.0042 19.4991 10.0042Z" fill="#FC7419"/>
<path d="M11.0273 18.4758C11.0273 23.1549 14.8199 26.9474 19.499 26.9474V10.0042C14.8199 10.0042 11.0273 13.7967 11.0273 18.4758Z" fill="#FDA102"/>
<path d="M19.4991 9.04395L18.8096 9.7335L19.4991 10.9895C23.6364 10.9895 26.9857 14.3633 26.9857 18.476C26.9857 22.5887 23.6118 25.9626 19.4991 25.9626L18.8096 26.923L19.4991 27.8835C24.6954 27.8835 28.9312 23.6476 28.9312 18.4514C28.9312 13.2551 24.6954 9.04395 19.4991 9.04395Z" fill="#FDAE02"/>
<path d="M11.9885 18.476C11.9885 14.3387 15.3624 10.9895 19.475 10.9895V9.04395C14.2788 9.04395 10.043 13.2798 10.043 18.476C10.043 23.6723 14.2788 27.9081 19.475 27.9081V25.9626C15.3624 25.9626 11.9885 22.6133 11.9885 18.476Z" fill="#FDCB02"/>
<path d="M19.6969 16.5057C20.3372 16.5057 21.0267 16.6781 21.7656 17.0475L22.529 15.2497C21.9379 14.9049 21.1745 14.7079 20.3865 14.6341V13.5012H19.5245L18.835 15.9146L19.5245 16.5057C19.5491 16.5057 19.623 16.5057 19.6969 16.5057Z" fill="#FDD535"/>
<path d="M19.4991 17.4414L18.8096 18.6727L19.4991 19.5101C20.0163 19.6332 20.3611 19.7563 20.3611 20.0272C20.3611 20.2735 20.1394 20.4213 19.4991 20.4213L18.8096 21.4063L19.4991 23.4257H20.3611V22.2436C22.0111 21.9481 22.8237 20.963 22.8237 19.8302C22.8237 17.8601 20.6812 17.7123 19.4991 17.4414Z" fill="#FDD535"/>
<path d="M19.4007 20.4462C18.588 20.4462 17.6522 20.1753 16.9627 19.7567L16.15 21.579C16.7903 21.9731 17.8 22.2686 18.8589 22.3178V23.4507H19.4746V20.4462C19.4746 20.4462 19.4254 20.4462 19.4007 20.4462Z" fill="#FEEA9A"/>
<path d="M18.8836 14.6588C17.1597 14.905 16.2732 15.9147 16.2732 17.0968C16.2732 19.0423 18.2926 19.2394 19.4993 19.5103V17.4416C19.056 17.3431 18.7358 17.22 18.7358 16.9737C18.7358 16.7521 18.9329 16.555 19.4993 16.5058V13.5013H18.8836V14.6588Z" fill="#FEEA9A"/>
</svg>
